<svg width="980" height="200" viewBox="0 0 980 200" fill="none" xmlns="http://www.w3.org/2000/svg">
<path d="M8.4 108.6H37C37.2667 114.6 40.1333 119.133 45.6 122.2C51.2 125.267 57.7333 126.8 65.2 126.8C83.0667 126.8 92 120.933 92 109.2C92 106.133 91.2667 103.467 89.8 101.2C88.4667 98.9333 86.9333 97.2667 85.2 96.2C83.4667 95 81 94 77.8 93.2C74.6 92.4 71.9333 91.8667 69.8 91.6C67.8 91.3333 65 91.0667 61.4 90.8C27.4 87.8667 10.4 74.6 10.4 51C10.4 36.4667 15.4667 25.5333 25.6 18.2C35.7333 10.7333 48.4 6.99999 63.6 6.99999C70.5333 6.99999 77 7.79999 83 9.4C89.1333 10.8667 94.8 13.2 100 16.4C105.2 19.6 109.333 24.0667 112.4 29.8C115.467 35.4 117 41.9333 117 49.4H89C88.2 44.0667 85.4 40.0667 80.6 37.4C75.8 34.6 70.1333 33.2 63.6 33.2C57.2 33.2 51.6 34.8 46.8 38C42.1333 41.0667 39.8 45.2 39.8 50.4C39.8 56 42.0667 60 46.6 62.4C51.2667 64.6667 57.9333 66.2667 66.6 67.2C75 68 82.0667 69.0667 87.8 70.4C93.6667 71.7333 99.3333 73.8667 104.8 76.8C110.4 79.7333 114.6 83.9333 117.4 89.4C120.2 94.7333 121.6 101.333 121.6 109.2C121.6 117.067 120 123.933 116.8 129.8C113.6 135.667 109.2 140.2 103.6 143.4C98.1333 146.6 92.2 148.933 85.8 150.4C79.5333 152 72.7333 152.867 65.4 153C49.9333 153 36.5333 149.2 25.2 141.6C14 133.867 8.4 122.867 8.4 108.6ZM239.32 150H211.12V94.2C211.387 87.9333 209.72 82.9333 206.12 79.2C202.654 75.4667 198.254 73.6 192.92 73.6C187.32 73.6 182.52 75.5333 178.52 79.4C174.52 83.1333 172.52 88.2667 172.52 94.8V150H144.52V83.4C144.52 80.4667 144.454 78.4 144.32 77.2C144.32 76 143.987 74.8 143.32 73.6C142.787 72.4 141.854 71.6667 140.52 71.4C139.32 71 137.587 70.8 135.32 70.8V53.4C158.787 49.4 170.52 53.7333 170.52 66.4C173.054 61.2 177.187 57.4 182.92 55C188.787 52.6 194.92 51.4 201.32 51.4C214.254 51.4 223.787 55.3333 229.92 63.2C236.187 71.0667 239.32 81.4 239.32 94.2V150ZM308.972 51.2C326.172 51.2 338.505 56.4 345.972 66.8C353.572 77.2 355.505 90.8 351.772 107.6H286.372C287.305 120.933 295.839 128.2 311.972 129.4C317.572 129.667 321.839 129.6 324.772 129.2C333.839 128.133 341.505 126.2 347.772 123.4L350.972 143.8C338.839 149.533 326.372 152.4 313.572 152.4C297.172 152.667 283.839 148.133 273.572 138.8C263.439 129.467 258.372 116.733 258.372 100.6C258.639 84.7333 263.639 72.5333 273.372 64C283.239 55.4667 295.105 51.2 308.972 51.2ZM308.972 72.6C303.372 72.6 298.505 74.1333 294.372 77.2C290.239 80.1333 287.639 84.2667 286.572 89.6H328.972C329.239 83.7333 327.439 79.4667 323.572 76.8C319.705 74 314.839 72.6 308.972 72.6ZM435.933 135.2C433.266 140.8 428.733 145 422.333 147.8C416.066 150.467 409.466 151.8 402.533 151.8C393.199 151.8 385.066 149.067 378.133 143.6C371.333 138 367.799 130.667 367.533 121.6C366.999 110.267 370.266 101.667 377.333 95.8C384.399 89.8 393.599 86.8 404.933 86.8C415.466 86.8 423.999 88.8667 430.533 93V86.4C430.533 77.2 422.533 72.6 406.533 72.6C394.933 72.6 385.666 74.5333 378.733 78.4L375.133 58.4C385.266 53.6 397.333 51.2 411.333 51.2C441.999 51.2 457.333 63.2 457.333 87.2V122C457.333 124.667 457.333 126.533 457.333 127.6C457.466 128.667 457.799 129.933 458.333 131.4C458.866 132.733 459.733 133.6 460.933 134C462.266 134.4 464.066 134.533 466.333 134.4L466.533 150C461.466 150.933 456.666 151.4 452.133 151.4C447.599 151.4 443.733 150.067 440.533 147.4C437.466 144.6 435.933 140.533 435.933 135.2ZM429.933 115.4V110.4C424.466 106.667 417.799 104.8 409.933 104.8C405.266 105.067 401.466 106.533 398.533 109.2C395.599 111.733 394.399 115.267 394.933 119.8C395.199 123.133 396.599 125.733 399.133 127.6C401.666 129.333 404.666 130.2 408.133 130.2C413.333 130.2 418.133 128.933 422.533 126.4C427.066 123.733 429.533 120.067 429.933 115.4ZM512.675 89H519.475C529.742 89 536.942 85.8667 541.075 79.6C545.208 73.2 547.275 64.4667 547.275 53.4H573.675C573.942 64.6 572.408 74.2 569.075 82.2C565.742 90.0667 559.608 96.3333 550.675 101L578.275 147V149.8H550.075L527.075 109.8C524.675 110.6 522.008 111 519.075 111H512.675V149.8H484.875V3.8H512.675V89ZM665.431 76.2L721.631 9.6H732.431V150H702.431V74.2L667.231 118.2H663.431L628.231 74.2V150H598.231V9.6H609.231L665.431 76.2ZM821.87 135.2C819.204 140.8 814.67 145 808.27 147.8C802.004 150.467 795.404 151.8 788.47 151.8C779.137 151.8 771.004 149.067 764.07 143.6C757.27 138 753.737 130.667 753.47 121.6C752.937 110.267 756.204 101.667 763.27 95.8C770.337 89.8 779.537 86.8 790.87 86.8C801.404 86.8 809.937 88.8667 816.47 93V86.4C816.47 77.2 808.47 72.6 792.47 72.6C780.87 72.6 771.604 74.5333 764.67 78.4L761.07 58.4C771.204 53.6 783.27 51.2 797.27 51.2C827.937 51.2 843.27 63.2 843.27 87.2V122C843.27 124.667 843.27 126.533 843.27 127.6C843.404 128.667 843.737 129.933 844.27 131.4C844.804 132.733 845.67 133.6 846.87 134C848.204 134.4 850.004 134.533 852.27 134.4L852.47 150C847.404 150.933 842.604 151.4 838.07 151.4C833.537 151.4 829.67 150.067 826.47 147.4C823.404 144.6 821.87 140.533 821.87 135.2ZM815.87 115.4V110.4C810.404 106.667 803.737 104.8 795.87 104.8C791.204 105.067 787.404 106.533 784.47 109.2C781.537 111.733 780.337 115.267 780.87 119.8C781.137 123.133 782.537 125.733 785.07 127.6C787.604 129.333 790.604 130.2 794.07 130.2C799.27 130.2 804.07 128.933 808.47 126.4C813.004 123.733 815.47 120.067 815.87 115.4ZM911.013 116H910.413L899.013 135.2L888.613 150H860.613V146.8L894.013 98.8L865.413 56.6V53.6H892.213L900.813 66.2L910.013 82.4H910.612L919.613 66L928.013 53.6H956.613V56.8L927.013 99.8L959.613 146.8V150H932.613L921.813 134.4L911.013 116Z" fill="white" fill-opacity="0.12"/>
</svg>
